<?xml version="1.0" encoding="utf-8"?>
<!-- Generator: Adobe Illustrator 16.0.4, SVG Export Plug-In . SVG Version: 6.00 Build 0)  -->
<!DOCTYPE svg PUBLIC "-//W3C//DTD SVG 1.1//EN" "http://www.w3.org/Graphics/SVG/1.1/DTD/svg11.dtd">
<svg version="1.1" id="Layer_1" xmlns="http://www.w3.org/2000/svg" xmlns:xlink="http://www.w3.org/1999/xlink" x="0px" y="0px"
	 width="40px" height="35.976px" viewBox="30 2.012 40 35.976" enable-background="new 30 2.012 40 35.976" xml:space="preserve">
<g>
	<polygon fill="#FFFFFF" points="43.197,37.988 56.804,37.988 50,31.822 	"/>
	<polygon fill="#FFFFFF" points="56.094,24.243 43.907,24.243 50,29.766 	"/>
	<rect x="45.871" y="12.198" fill="#FFFFFF" width="8.258" height="5.138"/>
	<path fill="#FFFFFF" d="M49.926,4.855L38,9.871l-5.32,12.934c0.017,0.073,0.029,0.147,0.029,0.222v14.092
		c0,0.478,0.392,0.87,0.871,0.87h7.651V23.547c0-0.385,0.312-0.696,0.697-0.696h16.145c0.385,0,0.697,0.312,0.697,0.696v14.441h7.65
		c0.479,0,0.871-0.393,0.871-0.871v-14.12c0-0.027,0.006-0.055,0.009-0.082L61.861,9.853L49.926,4.855z M55.521,18.033
		c0,0.385-0.311,0.697-0.695,0.697h-9.652c-0.385,0-0.697-0.312-0.697-0.697v-6.531c0-0.385,0.312-0.697,0.697-0.697h9.651
		c0.385,0,0.696,0.312,0.696,0.697V18.033L55.521,18.033z"/>
	<polygon fill="#FFFFFF" points="57.376,36.451 57.376,25.137 51.135,30.794 	"/>
	<polygon fill="#FFFFFF" points="42.624,36.451 48.866,30.794 42.624,25.138 	"/>
	<path fill="#FFFFFF" d="M69.941,21.618L64.629,8.747c-0.258-0.625-0.922-1.292-1.547-1.552l-12-4.988
		c-0.625-0.26-1.568-0.26-2.193,0.001L36.897,7.214c-0.624,0.26-1.289,0.929-1.546,1.554l-5.294,12.881
		c-0.16,0.389,0.026,0.834,0.416,0.994c0.095,0.04,0.192,0.058,0.29,0.058c0.211,0,0.411-0.091,0.555-0.247
		c0.061-0.065,0.114-0.139,0.15-0.225l0.13-0.317l5.163-12.563c0.104-0.254,0.47-0.622,0.724-0.728l11.992-5.006
		c0.253-0.105,0.768-0.105,1.021,0l9.558,3.973l2.484,1.04c0.159,0.08,0.343,0.24,0.487,0.412c0.003,0.006,0.008,0.009,0.01,0.015
		l5.342,12.833l0.023-0.004l0.132,0.318c0.159,0.389,0.604,0.575,0.995,0.413C69.918,22.453,70.104,22.008,69.941,21.618z"/>
</g>
</svg>
