<?xml version="1.0" encoding="utf-8"?>
<!-- Generator: Adobe Illustrator 16.0.4, SVG Export Plug-In . SVG Version: 6.00 Build 0)  -->
<!DOCTYPE svg PUBLIC "-//W3C//DTD SVG 1.1//EN" "http://www.w3.org/Graphics/SVG/1.1/DTD/svg11.dtd">
<svg version="1.1" id="Layer_1" xmlns="http://www.w3.org/2000/svg" xmlns:xlink="http://www.w3.org/1999/xlink" x="0px" y="0px"
	 width="32.766px" height="36px" viewBox="33.617 2 32.766 36" enable-background="new 33.617 2 32.766 36" xml:space="preserve">
<g>
	<rect x="36.899" y="20.317" fill="#FFFFFF" width="2.318" height="2.639"/>
	<rect x="41.533" y="20.317" fill="#FFFFFF" width="2.319" height="2.639"/>
	<rect x="46.167" y="20.317" fill="#FFFFFF" width="2.319" height="2.639"/>
	<rect x="36.899" y="25.174" fill="#FFFFFF" width="2.318" height="2.639"/>
	<rect x="41.533" y="25.174" fill="#FFFFFF" width="2.319" height="2.639"/>
	<rect x="46.167" y="25.174" fill="#FFFFFF" width="2.319" height="2.639"/>
	<rect x="36.899" y="30.03" fill="#FFFFFF" width="2.318" height="2.639"/>
	<rect x="41.533" y="30.03" fill="#FFFFFF" width="2.319" height="2.639"/>
	<rect x="46.167" y="30.03" fill="#FFFFFF" width="2.319" height="2.639"/>
	<rect x="51.515" y="20.317" fill="#FFFFFF" width="2.319" height="2.639"/>
	<rect x="56.148" y="20.317" fill="#FFFFFF" width="2.318" height="2.639"/>
	<rect x="60.782" y="20.317" fill="#FFFFFF" width="2.318" height="2.639"/>
	<rect x="51.515" y="25.174" fill="#FFFFFF" width="2.319" height="2.639"/>
	<rect x="56.148" y="25.174" fill="#FFFFFF" width="2.318" height="2.639"/>
	<rect x="60.782" y="25.174" fill="#FFFFFF" width="2.318" height="2.639"/>
	<rect x="51.515" y="30.03" fill="#FFFFFF" width="2.319" height="2.639"/>
	<rect x="56.148" y="30.03" fill="#FFFFFF" width="2.318" height="2.639"/>
	<rect x="60.782" y="30.03" fill="#FFFFFF" width="2.318" height="2.639"/>
	<rect x="51.515" y="10.604" fill="#FFFFFF" width="2.319" height="2.639"/>
	<rect x="56.148" y="10.604" fill="#FFFFFF" width="2.318" height="2.639"/>
	<rect x="60.782" y="10.604" fill="#FFFFFF" width="2.318" height="2.639"/>
	<rect x="51.515" y="15.461" fill="#FFFFFF" width="2.319" height="2.639"/>
	<rect x="56.148" y="15.461" fill="#FFFFFF" width="2.318" height="2.639"/>
	<rect x="60.782" y="15.461" fill="#FFFFFF" width="2.318" height="2.639"/>
	<path fill="#FFFFFF" d="M65.061,36.138l0.016-28.225L49.54,2v15.576l-14.616-5.563v24.125h-1.307V38h32.766v-1.862H65.061z
		 M49.525,36.138h-5.673V34.03h-2.319v2.107h-5.688V13.346L49.54,18.56L49.525,36.138z M64.141,36.138h-5.674V34.03h-2.318v2.107
		H50.46V18.184l0-0.258h0V3.333l13.696,5.214L64.141,36.138z"/>
</g>
</svg>
