<svg xmlns:dc="http://purl.org/dc/elements/1.1/" xmlns:cc="http://creativecommons.org/ns#" xmlns:rdf="http://www.w3.org/1999/02/22-rdf-syntax-ns#" xmlns:svg="http://www.w3.org/2000/svg" xmlns="http://www.w3.org/2000/svg" xmlns:sodipodi="http://sodipodi.sourceforge.net/DTD/sodipodi-0.dtd" xmlns:inkscape="http://www.inkscape.org/namespaces/inkscape" version="1.1" x="0px" y="0px" viewBox="0 0 100 125"><g transform="translate(0,-952.36218)"><path style="color:#000000;enable-background:accumulate;" d="m 49.8125,961.36708 c -0.411299,0.0351 -0.8104,0.20143 -1.125,0.46875 L 6.6874995,997.83585 c -0.7936,0.6872 -0.8904,2.0345 -0.2032,2.82795 0.6872,0.7936 2.0346004,0.8904 2.8282004,0.2032 L 50,965.99208 90.6875,1000.867 c 0.7936,0.6872 2.141001,0.5904 2.8282,-0.2032 0.6872,-0.79345 0.5904,-2.14075 -0.2032,-2.82795 L 75,982.14833 l 0,-16.78125 -8,0 0,9.90625 -15.6875,-13.4375 c -0.4094,-0.34953 -0.9644,-0.52295 -1.5,-0.46875 z m 0.1875,8 -32,26.99997 0,46.99995 64,0 0,-46.99995 z m -15,32.99992 12,0 0,12 -12,0 z m 18,0 12,0 0,12 -12,0 z m -18,18 12,0 0,12 -12,0 z m 18,0 12,0 0,12 -12,0 z" fill="#000000" stroke="none" marker="none" visibility="visible" display="inline" overflow="visible"/></g><text x="0" y="115" fill="#000000" font-size="5px" font-weight="bold" font-family="'Helvetica Neue', Helvetica, Arial-Unicode, Arial, Sans-serif">Created by Numero Uno</text><text x="0" y="120" fill="#000000" font-size="5px" font-weight="bold" font-family="'Helvetica Neue', Helvetica, Arial-Unicode, Arial, Sans-serif">from the Noun Project</text></svg>